<svg width="254" height="254" viewBox="0 0 254 254" fill="none" xmlns="http://www.w3.org/2000/svg">
<rect width="254" height="254" fill="#380D75"/>
<g>
<path d="M126.994 207.482L158.681 110.014H95.3535L126.994 207.482Z" fill="#E24329"/>
<path d="M50.9708 110.015L41.3215 139.627C40.4483 142.316 41.3913 145.284 43.696 146.96L126.994 207.482L50.9708 110.015Z" fill="#FCA326"/>
<path d="M50.9708 110.015H95.3534L76.2524 51.3149C75.2748 48.3117 71.0143 48.3117 70.0016 51.3149L50.9708 110.015Z" fill="#E24329"/>
<path d="M203.064 110.015L212.679 139.627C213.552 142.316 212.609 145.284 210.304 146.96L126.994 207.482L203.064 110.015Z" fill="#FCA326"/>
<path d="M203.064 110.015H158.681L177.747 51.3149C178.725 48.3117 182.985 48.3117 183.998 51.3149L203.064 110.015Z" fill="#E24329"/>
<path d="M126.994 207.482L158.681 110.015H203.064L126.994 207.482Z" fill="#FC6D26"/>
<path d="M126.994 207.482L50.9708 110.015H95.3534L126.994 207.482Z" fill="#FC6D26"/>
</g>
</svg>
